<svg width="233" height="206" viewBox="0 0 233 206" fill="none" xmlns="http://www.w3.org/2000/svg">
<path d="M131.003 8.59375L229.934 179.942C231.442 182.554 232.237 185.518 232.237 188.535C232.237 191.552 231.443 194.516 229.934 197.129C228.426 199.742 226.256 201.911 223.643 203.42C221.03 204.929 218.067 205.723 215.05 205.723H17.1871C14.1701 205.723 11.2062 204.929 8.59347 203.42C5.9807 201.911 3.81104 199.742 2.30258 197.129C0.794112 194.516 -1.91612e-05 191.552 3.46751e-10 188.535C1.91618e-05 185.518 0.794188 182.554 2.30269 179.942L101.234 8.59375C107.845 -2.86458 124.38 -2.86458 131.003 8.59375ZM116.118 144.398C113.079 144.398 110.165 145.605 108.016 147.754C105.867 149.903 104.66 152.817 104.66 155.856C104.66 158.895 105.867 161.81 108.016 163.959C110.165 166.107 113.079 167.315 116.118 167.315C119.157 167.315 122.072 166.107 124.221 163.959C126.369 161.81 127.577 158.895 127.577 155.856C127.577 152.817 126.369 149.903 124.221 147.754C122.072 145.605 119.157 144.398 116.118 144.398ZM116.118 64.1896C113.312 64.19 110.603 65.2203 108.506 67.0853C106.408 68.9502 105.069 71.52 104.74 74.3073L104.66 75.6479V121.481C104.663 124.402 105.782 127.211 107.786 129.334C109.791 131.458 112.531 132.736 115.447 132.907C118.362 133.078 121.233 132.13 123.473 130.255C125.712 128.381 127.151 125.722 127.496 122.822L127.577 121.481V75.6479C127.577 72.609 126.369 69.6945 124.221 67.5457C122.072 65.3968 119.157 64.1896 116.118 64.1896Z" fill="url(#paint0_linear_119_13)"/>
<defs>
<linearGradient id="paint0_linear_119_13" x1="116.118" y1="0" x2="116.118" y2="205.723" gradientUnits="userSpaceOnUse">
<stop stop-color="#FF8A00"/>
<stop offset="1" stop-color="#E9D502"/>
</linearGradient>
</defs>
</svg>
