<?xml version="1.0" standalone="no"?>
<!DOCTYPE svg PUBLIC "-//W3C//DTD SVG 20010904//EN"
 "http://www.w3.org/TR/2001/REC-SVG-20010904/DTD/svg10.dtd">
<svg version="1.0" xmlns="http://www.w3.org/2000/svg"
 width="259.000000pt" height="194.000000pt" viewBox="0 0 259.000000 194.000000"
 preserveAspectRatio="xMidYMid meet">

<g transform="translate(0.000000,194.000000) scale(0.100000,-0.100000)"
fill="#000000" stroke="none">
<path d="M0 970 l0 -970 640 0 c420 0 640 3 640 10 0 6 -26 10 -59 10 -40 0
-63 5 -71 15 -7 9 -29 15 -54 15 -23 0 -57 5 -76 11 -19 6 -48 12 -64 13 -25
1 -31 7 -38 33 -6 22 -13 30 -22 27 -11 -4 -16 6 -20 38 -22 173 -23 174 -20
28 2 -80 1 -135 -2 -122 -10 41 -27 24 -21 -20 5 -36 5 -39 -4 -18 -6 14 -9
58 -6 98 2 40 0 75 -4 78 -5 3 -9 32 -9 65 0 45 3 59 13 54 6 -4 4 0 -6 8 -11
9 -17 28 -17 55 0 22 -4 44 -10 47 -22 13 -8 24 18 14 15 -6 144 -51 286 -100
174 -60 263 -86 270 -79 12 12 5 20 -25 25 -52 8 -70 17 -64 35 8 25 -4 50
-25 50 -25 0 -33 -16 -20 -40 11 -20 2 -27 -15 -11 -6 5 -37 16 -70 24 -33 9
-125 39 -205 67 -163 56 -153 53 -162 51 -13 -2 -48 131 -59 219 -5 47 -15 95
-21 107 -14 28 -5 109 15 131 8 9 18 37 22 62 7 52 17 81 57 171 l29 66 45 -7
c24 -4 47 -9 50 -12 3 -4 -6 -28 -19 -55 -14 -26 -31 -67 -38 -91 -11 -37 -16
-42 -33 -37 -43 14 -76 17 -76 7 0 -5 17 -14 38 -19 42 -10 39 5 31 -175 l-4
-88 -28 0 c-16 0 -37 5 -48 10 -14 8 -19 7 -19 -3 0 -8 6 -14 13 -15 6 -1 23
-4 37 -6 14 -2 28 -5 31 -5 4 -1 12 -14 18 -29 7 -16 24 -35 39 -44 15 -8 130
-50 255 -92 227 -77 229 -77 267 -62 21 8 41 12 45 8 5 -4 5 -1 1 6 -9 16 -7
16 42 -8 24 -12 47 -18 52 -15 18 11 0 25 -46 36 -24 6 -44 13 -44 16 0 2 13
24 30 48 47 69 136 243 174 341 40 104 86 269 86 309 0 27 0 27 55 20 39 -4
55 -3 55 5 0 7 -7 10 -15 6 -8 -3 -15 -2 -15 2 0 4 -16 9 -36 10 -20 2 -48 11
-62 22 -15 10 -101 40 -192 66 -91 26 -187 53 -215 61 -27 8 -88 19 -134 23
-125 13 -126 36 -2 96 78 38 105 39 201 10 47 -15 101 -31 120 -36 65 -17 215
-62 278 -82 34 -11 68 -18 75 -15 14 5 -162 60 -360 113 -79 21 -143 41 -143
44 0 9 305 198 310 192 3 -2 -1 -7 -8 -9 -7 -3 -21 -13 -30 -23 -9 -10 -36
-28 -59 -40 -24 -12 -40 -26 -37 -31 3 -5 8 -9 11 -9 4 0 4 3 0 6 -9 9 64 44
77 37 6 -3 8 -3 4 2 -15 16 15 35 57 35 55 0 106 -10 100 -20 -9 -15 26 -40
56 -40 16 0 29 -5 29 -10 0 -6 18 -17 40 -26 22 -9 40 -20 40 -25 0 -5 20 -9
44 -9 25 0 48 -5 51 -10 5 -8 12 -7 23 2 11 9 10 5 -3 -14 -19 -25 -21 -25
-29 -7 -5 10 -13 19 -18 19 -5 0 -7 -4 -4 -9 3 -4 -1 -17 -9 -27 -8 -10 -14
-23 -14 -29 0 -5 6 -1 14 9 8 11 17 17 20 14 3 -3 -19 -42 -50 -88 -30 -45
-55 -87 -55 -93 0 -7 -4 -6 -9 3 -6 8 -7 19 -4 25 4 5 3 7 -2 3 -4 -4 -9 -35
-12 -69 -2 -35 -8 -82 -12 -105 -6 -30 -4 -46 5 -56 17 -17 3 -97 -20 -114 -9
-6 -30 -54 -47 -105 -16 -52 -57 -150 -90 -218 -33 -69 -57 -131 -54 -139 7
-20 -44 -102 -70 -112 -13 -5 -36 -28 -52 -52 -16 -24 -50 -74 -76 -111 -26
-38 -47 -77 -47 -89 0 -17 -50 -199 -66 -243 -5 -13 64 -15 625 -15 l631 0 0
970 0 970 -1295 0 -1295 0 0 -970z m1083 494 l47 -16 -35 -28 c-44 -35 -98
-94 -132 -142 -27 -39 -41 -44 -102 -32 l-31 6 35 48 c19 26 35 56 35 66 0 23
69 94 91 94 10 0 21 5 24 10 8 13 13 13 68 -6z m207 -184 c0 -10 -28 -40 -38
-40 -12 0 -34 17 -34 25 0 15 26 24 39 13 17 -13 17 4 1 21 -11 11 -9 11 10 2
12 -6 22 -16 22 -21z m627 -27 c-3 -10 -5 -4 -5 12 0 17 2 24 5 18 2 -7 2 -21
0 -30z m-531 14 c53 6 93 -10 122 -49 7 -10 20 -18 28 -18 18 0 18 -10 -1 -46
-8 -16 -15 -36 -15 -45 0 -16 -19 -39 -32 -39 -4 0 -3 12 2 26 17 44 11 46
-32 12 -24 -18 -45 -36 -48 -39 -3 -3 -14 -11 -25 -17 -19 -11 -19 -11 3 -12
29 0 46 -39 26 -60 -18 -19 -38 -1 -23 20 9 12 10 12 5 -3 -3 -11 -2 -16 4
-12 6 3 10 15 10 26 0 13 -7 19 -23 19 -13 0 -27 -3 -31 -7 -4 -5 -11 -8 -15
-8 -8 0 -111 -75 -111 -81 0 -3 9 0 20 6 17 9 20 8 21 -12 1 -22 3 -30 9 -53
1 -5 1 -20 0 -32 -1 -17 4 -23 19 -23 22 0 30 -33 11 -45 -22 -14 -38 18 -45
87 -3 40 -10 66 -14 59 -9 -14 -25 1 -35 34 -5 16 3 26 36 48 28 18 44 23 49
16 4 -7 18 0 39 20 18 17 38 31 44 31 16 0 93 69 78 70 -8 0 -6 8 8 22 25 27
25 40 1 62 -16 15 -19 15 -31 1 -18 -21 -33 -19 -27 5 4 17 0 20 -29 20 -37 0
-43 -10 -18 -30 27 -23 35 -47 23 -73 -10 -23 -60 -56 -58 -39 3 20 -3 32 -17
32 -9 0 -12 5 -8 13 5 7 0 6 -11 -3 -11 -9 -16 -10 -11 -2 5 8 1 12 -11 12
-14 0 -14 3 6 16 18 13 25 14 31 4 6 -9 11 -8 18 7 8 15 6 27 -9 52 -23 39
-24 45 -2 32 9 -5 40 -7 69 -4z m-134 -55 c-7 -2 -10 -8 -7 -12 5 -9 -46 3
-65 15 -23 15 3 22 42 12 23 -6 37 -12 30 -15z m56 6 c-2 -6 -15 -18 -28 -27
-21 -14 -23 -14 -16 -1 16 27 28 40 38 40 5 0 8 -5 6 -12z m612 -30 c0 -16 -3
-19 -11 -11 -6 6 -8 16 -5 22 11 17 16 13 16 -11z m-496 -3 c3 -8 1 -15 -4
-15 -6 0 -10 7 -10 15 0 8 2 15 4 15 2 0 6 -7 10 -15z m-240 -1 c19 -7 11 -24
-10 -24 -9 0 -12 5 -8 12 5 8 2 9 -10 5 -10 -4 -15 -3 -11 3 7 12 17 12 39 4z
m230 -54 c-6 -6 -10 -2 -11 12 -2 16 1 18 10 9 7 -7 8 -14 1 -21z m-144 -10
c13 -11 17 -20 10 -20 -9 0 -10 -10 -6 -34 4 -20 2 -37 -4 -41 -5 -3 -10 -1
-10 6 0 8 -5 7 -17 -3 -22 -18 -56 -32 -48 -18 3 5 -11 12 -30 16 -25 4 -33
10 -26 17 6 6 23 4 49 -6 37 -15 41 -15 48 1 4 9 6 36 5 60 -2 23 -1 42 2 42
2 0 14 -9 27 -20z m667 -16 c9 -25 -6 -64 -25 -64 -15 0 -18 8 -18 35 1 19 5
35 10 35 5 0 2 7 -5 17 -13 15 -12 15 9 4 13 -7 26 -19 29 -27z m-343 -42 c-3
-28 -20 -49 -31 -38 -4 4 -2 15 4 25 8 13 8 22 1 29 -8 8 -5 11 9 9 15 -1 19
-7 17 -25z m-468 -43 c3 -6 1 -16 -6 -22 -10 -9 -11 -9 -6 1 4 6 2 12 -3 12
-6 0 -11 5 -11 10 0 13 17 13 26 -1z m332 -19 c-2 -16 -1 -31 3 -32 4 -2 0
-20 -9 -40 l-17 -38 -21 25 c-21 24 -21 24 -2 31 25 7 48 56 30 62 -14 4 -6
22 10 22 6 0 8 -13 6 -30z m472 17 c0 -8 -9 -22 -19 -31 -11 -10 -22 -28 -25
-42 -6 -21 -9 -23 -27 -13 -26 13 -19 53 14 80 26 22 57 25 57 6z m-395 -33
c-8 -9 -15 -20 -15 -26 0 -6 -2 -9 -5 -6 -9 8 17 58 27 52 4 -3 1 -12 -7 -20z
m-166 -7 c8 -10 7 -14 -2 -14 -8 0 -14 6 -14 14 0 7 1 13 2 13 2 0 8 -6 14
-13z m-215 -12 c-4 -8 -8 -15 -10 -15 -2 0 -4 7 -4 15 0 8 4 15 10 15 5 0 7
-7 4 -15z m396 -50 c0 -41 -4 -65 -11 -65 -7 0 -10 12 -7 29 2 17 0 27 -5 24
-5 -3 -4 4 2 15 6 11 11 30 11 41 0 12 2 21 5 21 3 0 5 -29 5 -65z m-340 15
c0 -5 -5 -10 -11 -10 -5 0 -7 5 -4 10 3 6 8 10 11 10 2 0 4 -4 4 -10z m190
-25 c0 -12 -19 -12 -23 0 -4 9 -1 12 9 8 7 -3 14 -7 14 -8z m465 5 c13 -6 15
-9 5 -9 -8 0 -22 4 -30 9 -18 12 -2 12 25 0z m-784 -31 c-5 -13 -10 -19 -10
-12 -1 15 10 45 15 40 3 -2 0 -15 -5 -28z m79 21 c0 -5 -4 -10 -10 -10 -5 0
-10 5 -10 10 0 6 5 10 10 10 6 0 10 -4 10 -10z m-143 -36 c-3 -3 -12 -4 -19
-1 -8 3 -5 6 6 6 11 1 17 -2 13 -5z m374 -11 c13 -16 12 -17 -3 -4 -17 13 -22
21 -14 21 2 0 10 -8 17 -17z m124 7 c3 -5 1 -10 -4 -10 -6 0 -11 5 -11 10 0 6
2 10 4 10 3 0 8 -4 11 -10z m-415 -20 c0 -5 -5 -10 -11 -10 -6 0 -9 -7 -5 -15
3 -8 1 -15 -4 -15 -6 0 -10 9 -10 19 0 11 -6 22 -12 24 -7 3 -1 6 15 6 15 1
27 -3 27 -9z m153 -10 c9 -10 9 -11 0 -6 -9 5 -13 0 -13 -13 0 -12 -4 -21 -10
-21 -5 0 -10 -6 -10 -14 0 -18 -17 -24 -82 -30 -32 -3 -41 -2 -23 2 31 8 57
45 48 69 -3 8 -15 19 -27 24 -15 7 -3 8 42 6 35 -2 68 -9 75 -17z m260 -7 c-3
-7 -9 -10 -14 -7 -5 3 -9 0 -9 -6 0 -6 -5 -8 -12 -4 -9 6 -9 9 0 12 7 2 10 7
8 11 -3 4 4 7 14 7 10 0 16 -6 13 -13z m-493 -8 c0 -8 7 -15 16 -15 10 0 14
-5 10 -15 -3 -9 1 -18 11 -22 14 -6 14 -8 -3 -20 -10 -7 -30 -13 -46 -13 -23
0 -28 4 -28 24 0 33 17 76 30 76 5 0 10 -7 10 -15z m115 -45 c-3 -5 -12 -10
-18 -10 -7 0 -6 4 3 10 19 12 23 12 15 0z m-42 -57 c-7 -2 -19 -2 -25 0 -7 3
-2 5 12 5 14 0 19 -2 13 -5z m-25 -33 c2 -6 10 -10 17 -10 8 0 20 -10 26 -22
l12 -22 18 23 c12 14 19 18 19 10 0 -34 -33 -36 -115 -9 -70 23 -77 28 -60 38
22 13 78 7 83 -8z m252 -25 c-7 -8 -16 -15 -21 -15 -5 0 -1 8 9 18 20 22 31
19 12 -3z m460 8 c7 7 5 0 -5 -15 -19 -31 -28 -36 -19 -13 4 8 2 15 -4 15 -6
0 -12 -6 -15 -12 -3 -7 -4 -3 -4 9 1 17 5 20 18 13 10 -6 21 -5 29 3z m-53
-103 c4 -38 -12 -88 -25 -76 -3 4 -11 -7 -18 -24 -7 -16 -20 -30 -28 -30 -8 0
-34 -22 -59 -50 -25 -27 -49 -50 -54 -50 -4 0 -1 5 7 10 13 8 12 11 -5 25 -11
9 -14 13 -7 10 8 -5 15 1 19 13 3 11 11 23 19 26 11 4 11 0 -2 -19 -21 -32
-12 -32 21 1 22 22 24 28 13 42 -10 12 -10 14 -1 8 7 -4 21 -2 30 4 17 11 17
11 0 6 -14 -5 -12 2 10 24 33 35 35 36 26 13 -6 -15 -4 -16 9 -6 8 7 18 10 21
6 4 -3 7 1 7 9 0 9 -5 18 -12 20 -10 4 -9 14 1 47 14 50 22 47 28 -9z m-197
-237 c-1 -25 -31 -62 -37 -45 -3 6 -9 10 -13 7 -5 -3 -12 0 -16 6 -5 8 -3 9 6
4 10 -6 12 -4 7 8 -3 9 -2 19 3 22 6 4 10 2 10 -4 0 -6 7 -8 15 -5 8 4 12 10
9 15 -3 5 0 9 5 9 6 0 11 -8 11 -17z m-65 -73 c3 -5 1 -10 -4 -10 -6 0 -11 5
-11 10 0 6 2 10 4 10 3 0 8 -4 11 -10z"/>
<path d="M967 1403 c-15 -14 -7 -43 12 -43 22 0 45 25 36 40 -7 11 -38 14 -48
3z m38 -13 c4 -6 -1 -7 -11 -3 -13 5 -15 3 -9 -7 5 -9 4 -11 -4 -6 -6 4 -9 12
-6 17 8 12 22 12 30 -1z"/>
<path d="M1340 1175 c0 -8 -5 -15 -12 -15 -8 0 -6 -7 5 -17 16 -16 19 -16 27
-3 15 23 12 50 -5 50 -8 0 -15 -7 -15 -15z"/>
<path d="M1189 823 c-1 -5 -1 -11 0 -15 0 -5 -4 -8 -11 -8 -6 0 -8 -3 -5 -7 4
-3 1 -13 -6 -21 -10 -13 -9 -15 6 -9 10 4 24 7 29 7 6 0 9 3 5 6 -3 4 1 13 9
21 8 8 12 19 9 24 -7 11 -35 12 -36 2z"/>
<path d="M1925 1610 c-3 -5 -1 -10 4 -10 6 0 11 5 11 10 0 6 -2 10 -4 10 -3 0
-8 -4 -11 -10z"/>
<path d="M1355 1550 c-3 -5 -1 -10 4 -10 6 0 11 5 11 10 0 6 -2 10 -4 10 -3 0
-8 -4 -11 -10z"/>
<path d="M1680 1449 c0 -11 29 -19 45 -13 26 10 16 24 -15 22 -16 -1 -30 -5
-30 -9z"/>
<path d="M1753 1183 c-7 -2 -13 -16 -13 -29 0 -22 4 -25 27 -22 31 3 44 35 21
49 -14 10 -17 10 -35 2z m30 -28 c0 -6 -7 -11 -16 -11 -16 -2 -16 -1 -1 3 14
4 15 7 3 15 -11 7 -11 9 -1 6 8 -2 14 -8 15 -13z"/>
<path d="M1670 1015 c0 -7 12 -15 28 -18 15 -3 35 -9 44 -12 11 -4 20 1 29 17
11 20 11 22 -3 10 -13 -10 -23 -10 -57 2 -32 11 -41 11 -41 1z"/>
<path d="M746 884 c-22 -22 -15 -39 15 -39 19 0 24 5 24 24 0 30 -17 37 -39
15z m30 -23 c-8 -13 -36 -15 -36 -3 0 4 5 13 12 20 14 14 34 0 24 -17z"/>
<path d="M1584 802 c3 -5 23 -12 45 -16 22 -3 42 -12 44 -18 4 -8 6 -7 6 4 1
17 -8 21 -68 33 -21 5 -31 3 -27 -3z"/>
<path d="M1525 634 c-9 -9 -14 -23 -11 -31 3 -8 6 -17 6 -19 0 -2 9 -4 20 -4
25 0 41 30 29 53 -12 21 -23 22 -44 1z m39 -12 c2 -4 1 -14 -3 -20 -10 -17
-41 -4 -34 14 6 15 29 19 37 6z"/>
<path d="M871 510 c-10 -6 -10 -12 -2 -29 19 -34 59 -23 45 12 -7 20 -27 27
-43 17z"/>
<path d="M813 405 c0 -8 9 -15 19 -15 12 0 18 -7 18 -22 0 -19 2 -20 10 -8 8
12 10 12 10 -5 0 -15 3 -17 9 -7 7 11 17 11 52 2 24 -7 56 -19 72 -27 15 -8
32 -11 39 -7 6 4 16 0 22 -8 6 -8 22 -15 36 -14 14 1 24 -4 23 -10 -1 -7 6
-10 20 -7 18 4 20 3 7 -7 -13 -10 -12 -11 3 -6 10 3 37 -4 59 -15 23 -12 56
-21 74 -22 18 -1 36 -7 38 -14 4 -10 10 -9 25 4 22 19 38 12 -244 107 -38 14
-114 40 -168 60 -109 40 -124 43 -124 21z"/>
<path d="M838 215 c2 -50 6 -92 8 -94 7 -8 2 134 -6 159 -4 14 -5 -15 -2 -65z"/>
<path d="M1281 74 c0 -11 3 -14 6 -6 3 7 2 16 -1 19 -3 4 -6 -2 -5 -13z"/>
<path d="M1292 30 c0 -14 2 -19 5 -12 2 6 2 18 0 25 -3 6 -5 1 -5 -13z"/>
</g>
</svg>
