<?xml version="1.0" standalone="no"?>
<!DOCTYPE svg PUBLIC "-//W3C//DTD SVG 20010904//EN"
 "http://www.w3.org/TR/2001/REC-SVG-20010904/DTD/svg10.dtd">
<svg version="1.0" xmlns="http://www.w3.org/2000/svg"
 width="225.000000pt" height="225.000000pt" viewBox="0 0 225.000000 225.000000"
 preserveAspectRatio="xMidYMid meet">

<g transform="translate(0.000000,225.000000) scale(0.100000,-0.100000)"
fill="#000000" stroke="none">
<path d="M1033 2073 c9 -2 17 -9 17 -14 0 -5 8 -9 17 -9 15 0 16 -2 3 -15 -8
-8 -25 -16 -38 -18 -12 -2 -28 -9 -34 -15 -9 -9 -6 -12 14 -12 14 0 31 7 38
15 9 11 33 15 91 15 46 0 79 4 79 10 0 6 -29 10 -66 10 -38 0 -63 4 -59 9 7
13 -3 18 -45 24 -19 2 -27 2 -17 0z"/>
<path d="M1163 2063 c15 -2 39 -2 55 0 15 2 2 4 -28 4 -30 0 -43 -2 -27 -4z"/>
<path d="M1250 2060 c0 -5 12 -10 28 -10 21 0 24 2 12 10 -20 13 -40 13 -40 0z"/>
<path d="M1347 2064 c-15 -15 -6 -22 28 -20 38 3 61 16 27 16 -11 0 -27 2 -34
5 -8 3 -17 2 -21 -1z"/>
<path d="M954 2053 c35 -4 37 -5 20 -18 -11 -8 -35 -15 -55 -15 -23 0 -39 -6
-43 -15 -4 -11 2 -15 24 -15 33 0 35 -3 20 -31 -7 -12 -21 -19 -41 -19 -17 0
-43 -8 -57 -19 -15 -10 -35 -20 -45 -22 -10 -2 -32 -29 -50 -59 l-31 -55 36
35 c68 66 72 68 101 63 15 -3 27 -11 27 -18 0 -19 37 -25 51 -9 9 11 8 14 -5
14 -21 0 -21 34 0 54 8 9 24 16 35 16 16 0 18 -3 9 -19 -15 -28 -13 -33 10
-21 24 13 25 8 6 -28 l-14 -27 79 0 c49 0 83 5 90 13 10 10 -2 12 -65 12 -76
0 -77 1 -71 23 12 36 21 40 100 43 l75 3 -6 -25 c-5 -19 -3 -23 10 -18 18 7
21 -8 6 -37 -9 -16 -7 -19 15 -19 14 0 28 -1 32 -2 4 -2 9 5 11 15 2 12 -3 17
-17 17 -23 0 -26 12 -11 41 13 23 66 27 56 4 -3 -8 -9 -22 -12 -30 -5 -12 2
-15 31 -15 32 0 37 -3 32 -20 -3 -10 -2 -19 2 -18 26 3 43 -5 51 -24 7 -19 9
-15 9 21 1 56 10 47 26 -26 l13 -58 1 45 c0 55 -23 148 -33 132 -4 -7 -4 -16
-1 -22 4 -6 -6 -10 -22 -9 -15 0 -22 3 -15 6 6 2 12 11 12 19 0 10 -12 14 -41
14 -35 0 -40 3 -34 19 4 14 0 20 -19 23 -19 4 -27 0 -31 -13 -4 -12 -16 -19
-32 -19 -18 0 -24 4 -20 14 5 12 -9 15 -68 18 -61 2 -75 0 -84 -14 -14 -23
-56 -25 -47 -3 4 10 -1 15 -14 15 -11 0 -20 6 -20 13 0 20 21 37 45 37 29 0
37 10 20 26 -7 8 -30 13 -52 12 l-38 -1 39 -4z"/>
<path d="M1271 2027 c-8 -11 -5 -13 19 -9 17 2 30 8 30 13 0 14 -36 11 -49 -4z"/>
<path d="M1416 2003 c-13 -13 -20 -15 -23 -5 -7 19 -89 16 -97 -4 -6 -14 0
-16 44 -12 42 4 50 2 50 -12 0 -9 7 -32 16 -50 9 -18 19 -52 22 -76 2 -24 8
-41 13 -39 4 3 10 -4 14 -15 6 -18 18 -25 28 -17 2 1 11 -4 20 -12 14 -11 17
-11 18 0 0 8 4 4 9 -8 12 -28 40 -30 40 -3 0 11 -4 20 -10 20 -5 0 -7 6 -4 14
3 8 1 23 -6 33 -10 16 -11 14 -6 -8 5 -23 2 -26 -19 -26 -27 0 -27 -1 -30 40
-2 24 2 27 27 27 28 0 29 2 23 33 -4 17 -19 55 -35 82 -30 56 -62 68 -94 38z
m90 -60 c-11 -11 -46 -14 -46 -3 0 6 12 10 27 10 14 0 23 -3 19 -7z m19 -73
c-3 -5 -12 -10 -18 -10 -7 0 -6 4 3 10 19 12 23 12 15 0z"/>
<path d="M1200 2000 c0 -5 11 -10 25 -10 14 0 25 5 25 10 0 6 -11 10 -25 10
-14 0 -25 -4 -25 -10z"/>
<path d="M761 1804 c0 -11 3 -14 6 -6 3 7 2 16 -1 19 -3 4 -6 -2 -5 -13z"/>
<path d="M748 1756 c-6 -31 2 -33 33 -5 20 17 21 20 5 14 -11 -3 -23 -1 -26 6
-4 6 -9 0 -12 -15z"/>
<path d="M1234 1751 c4 -5 1 -11 -5 -13 -5 -2 2 -13 18 -24 l28 -21 1 22 c1
15 -7 27 -23 34 -13 6 -22 7 -19 2z"/>
<path d="M1448 1753 c7 -3 16 -2 19 1 4 3 -2 6 -13 5 -11 0 -14 -3 -6 -6z"/>
<path d="M1496 1703 c8 -25 14 -60 14 -77 0 -17 5 -38 11 -46 7 -11 8 0 4 38
-5 36 -3 52 5 52 6 0 8 5 5 10 -4 6 -11 8 -16 5 -5 -4 -9 3 -9 14 0 25 -10 51
-20 51 -4 0 -2 -21 6 -47z"/>
<path d="M1448 1704 c3 -23 9 -34 20 -34 12 0 13 3 4 12 -7 7 -12 20 -12 29 0
10 -4 20 -8 23 -4 2 -6 -11 -4 -30z"/>
<path d="M880 1723 c-14 -3 -59 -21 -100 -40 -136 -65 -223 -179 -257 -336
-46 -218 70 -442 269 -519 63 -24 218 -40 218 -22 0 7 10 9 26 6 18 -3 25 -1
20 6 -3 6 1 8 12 5 10 -2 30 1 46 7 25 9 27 12 15 28 -11 14 -11 15 1 5 20
-19 41 -16 33 4 -4 11 -3 14 5 9 7 -4 12 -2 12 4 0 6 8 9 18 6 21 -7 118 87
107 104 -4 6 -1 9 7 8 8 -2 12 4 10 16 -2 10 1 15 7 12 5 -4 13 -1 17 5 4 8 3
9 -4 5 -7 -4 -12 -2 -12 3 0 6 8 11 17 11 9 0 13 3 10 7 -4 3 0 11 7 17 17 13
46 97 46 131 0 16 -6 25 -15 25 -8 0 -15 4 -15 9 0 6 10 8 21 6 21 -4 22 -2
16 63 -24 251 -206 425 -441 421 -39 -1 -82 -4 -96 -6z m120 -33 c0 -5 -4 -10
-10 -10 -5 0 -10 5 -10 10 0 6 5 10 10 10 6 0 10 -4 10 -10z m-1 -32 c11 -10
13 -10 7 0 -4 6 -2 12 3 12 6 0 11 -4 11 -9 0 -5 8 -7 18 -4 10 2 42 -5 72
-16 40 -15 57 -18 67 -9 7 6 16 8 19 5 8 -8 -6 -28 -15 -22 -5 2 -7 -6 -6 -19
2 -19 -1 -23 -16 -19 -11 3 -22 9 -25 14 -3 5 -10 9 -15 9 -6 0 -7 -5 -3 -12
4 -7 3 -8 -4 -4 -6 4 -9 13 -6 20 3 8 0 17 -7 22 -7 4 -10 3 -7 -2 3 -5 0 -15
-8 -22 -9 -8 -14 -9 -14 -2 0 6 -4 8 -10 5 -5 -3 -10 -1 -10 4 0 6 -6 10 -12
9 -7 -2 -12 2 -11 9 2 12 -21 12 -33 0 -15 -15 -26 -6 -13 11 13 15 12 16 -3
4 -9 -8 -23 -11 -30 -7 -7 4 -2 -2 11 -13 l23 -19 -30 -1 c-25 0 -30 3 -25 16
5 15 4 15 -8 2 -29 -32 -47 -42 -55 -29 -4 8 -3 9 5 5 6 -4 14 0 17 8 3 9 11
13 17 9 6 -4 7 -1 2 6 -5 9 -10 10 -18 2 -14 -14 -30 -14 -22 -1 3 6 -1 7 -9
4 -9 -3 -16 -11 -16 -16 0 -6 -9 -8 -19 -5 -13 3 -21 -1 -24 -12 -3 -10 -5 -7
-6 8 -1 19 3 22 20 18 15 -4 19 -2 15 8 -6 17 55 39 90 32 13 -2 27 0 30 4 8
13 38 11 53 -3z m-209 -16 c0 -4 -9 -13 -19 -19 -16 -10 -20 -9 -25 4 -4 11
-2 14 9 9 8 -3 15 -1 15 4 0 6 5 10 10 10 6 0 10 -3 10 -8z m230 -35 c0 -7 -4
-6 -10 3 -8 12 -10 12 -10 1 0 -8 -3 -12 -6 -8 -9 9 6 28 17 22 5 -4 9 -12 9
-18z m-245 -17 c3 -5 -1 -10 -10 -10 -9 0 -13 5 -10 10 3 6 8 10 10 10 2 0 7
-4 10 -10z m65 -10 c0 -5 -2 -10 -4 -10 -3 0 -8 5 -11 10 -3 6 -1 10 4 10 6 0
11 -4 11 -10z m217 4 c-3 -3 -12 -4 -19 -1 -8 3 -5 6 6 6 11 1 17 -2 13 -5z
m-259 -28 c-7 -8 -15 -12 -17 -11 -5 6 10 25 20 25 5 0 4 -6 -3 -14z m362 10
c0 -3 -4 -8 -10 -11 -5 -3 -10 -1 -10 4 0 6 5 11 10 11 6 0 10 -2 10 -4z
m-267 -36 c4 0 6 4 3 9 -5 8 18 8 34 0 3 -1 34 -3 70 -5 99 -3 94 -2 80 -19
-10 -12 -16 -13 -29 -3 -13 10 -13 9 1 -8 16 -19 16 -20 -2 -21 -14 -1 -20 5
-20 18 0 17 -8 19 -89 19 -50 0 -93 4 -96 10 -4 6 1 7 11 3 13 -5 15 -3 9 8
-6 11 -5 12 6 2 7 -7 17 -13 22 -13z m3 -47 c-10 -10 -19 5 -10 18 6 11 8 11
12 0 2 -7 1 -15 -2 -18z m51 5 c-3 -8 -6 -5 -6 6 -1 11 2 17 5 13 3 -3 4 -12
1 -19z m43 6 c0 -8 -5 -12 -10 -9 -6 4 -8 11 -5 16 9 14 15 11 15 -7z m117 1
c0 -8 -4 -12 -9 -9 -5 3 -6 10 -3 15 9 13 12 11 12 -6z m-477 -5 c0 -5 -4 -10
-10 -10 -5 0 -10 5 -10 10 0 6 5 10 10 10 6 0 10 -4 10 -10z m51 -40 c4 -3 4
-12 -1 -20 -8 -13 -10 -12 -10 2 0 15 -4 16 -26 8 -16 -7 -23 -7 -19 0 3 6 12
10 20 10 8 0 11 8 8 23 -4 21 -4 21 8 2 7 -11 16 -22 20 -25z m155 25 c-1 -8
-5 -17 -8 -21 -5 -4 -4 16 1 34 3 9 9 -1 7 -13z m509 6 c-3 -5 -1 -12 5 -16 6
-4 8 -11 4 -16 -3 -5 -10 -7 -15 -3 -5 3 -7 10 -4 15 4 5 0 9 -7 9 -9 0 -9 3
2 10 19 12 23 12 15 1z m-210 -22 c0 -5 5 -9 10 -8 6 1 9 5 8 10 -2 5 0 8 5 7
4 0 15 2 25 7 28 12 30 0 5 -27 -45 -46 -175 -158 -179 -153 -4 4 -81 -97 -87
-115 -2 -4 6 -6 17 -3 37 9 91 -7 127 -39 19 -17 33 -37 30 -44 -3 -8 -1 -14
4 -14 5 0 7 -7 4 -15 -4 -9 0 -15 10 -16 30 -3 34 -4 43 -13 5 -5 2 -6 -6 -1
-10 6 -12 4 -6 -5 6 -10 13 -7 27 11 16 20 18 21 9 3 -7 -15 -7 -25 2 -34 10
-10 8 -12 -7 -6 -25 8 -58 -2 -50 -16 5 -7 2 -8 -6 -3 -10 6 -12 4 -7 -8 8
-21 -2 -49 -14 -41 -5 3 -9 2 -9 -3 -1 -20 -32 -46 -60 -49 -17 -2 -39 -8 -49
-13 -10 -6 -22 -7 -26 -3 -3 4 -11 8 -16 8 -5 1 -10 2 -11 4 -2 1 -10 3 -19 5
-18 3 -69 34 -69 42 0 2 6 1 13 -2 6 -4 2 2 -10 12 -21 17 -42 80 -22 68 5 -4
7 -10 5 -14 -3 -4 0 -13 5 -21 9 -13 10 -13 8 0 -3 27 1 40 12 40 5 0 8 -3 6
-7 -3 -5 13 -8 34 -8 27 -1 39 3 39 13 0 8 -6 12 -14 9 -20 -8 -42 23 -41 54
1 18 -3 25 -12 22 -7 -3 -10 -10 -6 -17 3 -6 3 -8 -2 -4 -4 4 -14 0 -21 -10
-18 -23 -17 -37 1 -22 9 7 17 11 18 9 1 -2 9 -13 17 -23 13 -18 13 -19 0 -11
-24 15 -54 13 -76 -7 -19 -17 -22 -17 -34 -3 -10 12 -9 16 4 21 23 9 11 22
-18 19 -18 -2 -23 1 -19 12 5 12 7 12 14 2 4 -8 11 -10 15 -6 4 4 16 -1 27
-10 11 -10 17 -12 13 -5 -4 7 -1 12 8 12 9 0 23 14 31 31 9 17 38 58 66 92 52
65 59 87 32 108 -15 12 -16 12 -8 -1 5 -8 -15 5 -45 28 -30 24 -55 48 -55 53
0 4 -9 15 -20 23 -16 13 -17 15 -4 16 18 0 77 -40 125 -86 37 -34 54 -33 77 5
22 37 21 41 -3 41 -16 0 -20 7 -20 35 0 30 3 35 24 35 21 0 24 -6 28 -42 3
-24 0 -50 -6 -58 -5 -8 13 7 42 34 28 27 49 53 46 58 -3 5 -2 8 3 7 18 -3 24
2 16 14 -10 16 -14 41 -5 32 4 -4 7 -11 7 -16z m-515 7 c0 -11 -19 -15 -25 -6
-3 5 1 10 9 10 9 0 16 -2 16 -4z m690 -39 c-10 -9 -12 -8 -7 6 7 20 -13 23
-31 5 -7 -7 -12 -8 -12 -2 0 6 10 16 23 21 27 12 48 -11 27 -30z m-480 9 c0
-2 -8 -10 -17 -17 -16 -13 -17 -12 -4 4 13 16 21 21 21 13z m138 -41 c1 -31
-1 -35 -23 -35 -22 0 -25 4 -25 35 0 30 3 35 23 35 20 0 24 -5 25 -35z m322
25 c0 -5 -5 -10 -11 -10 -5 0 -7 5 -4 10 3 6 8 10 11 10 2 0 4 -4 4 -10z
m-476 -65 c-6 -15 -38 -15 -51 0 -5 4 -3 6 2 3 6 -3 19 -2 30 3 11 4 21 8 22
8 1 1 0 -6 -3 -14z m343 -11 c-3 -3 -12 -4 -19 -1 -8 3 -5 6 6 6 11 1 17 -2
13 -5z m-437 -34 c0 -5 -5 -10 -11 -10 -5 0 -7 5 -4 10 3 6 8 10 11 10 2 0 4
-4 4 -10z m365 -11 c-5 -25 -13 -35 -21 -27 -5 6 13 48 21 48 2 0 2 -10 0 -21z
m50 11 c3 -5 1 -10 -4 -10 -6 0 -11 5 -11 10 0 6 2 10 4 10 3 0 8 -4 11 -10z
m105 -4 c-1 -5 4 -12 11 -17 8 -4 10 -11 6 -16 -9 -8 -28 17 -21 28 2 4 -1 10
-6 12 -7 4 -6 5 1 3 6 -1 10 -5 9 -10z m-673 -2 c-3 -3 -12 -4 -19 -1 -8 3 -5
6 6 6 11 1 17 -2 13 -5z m840 -10 c-3 -3 -12 -4 -19 -1 -8 3 -5 6 6 6 11 1 17
-2 13 -5z m-845 -22 c-10 -3 -10 -7 -1 -18 9 -11 8 -14 -5 -14 -9 0 -16 8 -16
18 0 23 10 33 23 25 7 -4 7 -8 -1 -11z m45 1 c4 -10 1 -19 -6 -21 -11 -4 -11
-6 0 -13 11 -7 10 -9 -3 -9 -20 0 -24 26 -5 33 9 4 8 8 -3 16 -11 8 -11 11 -2
11 7 0 16 -8 19 -17z m30 -8 c0 -8 -4 -12 -9 -9 -4 3 -8 9 -8 15 0 5 4 9 8 9
5 0 9 -7 9 -15z m733 1 c0 -18 -19 -31 -28 -21 -4 4 -1 10 7 13 11 4 11 6 0
13 -11 7 -10 9 4 9 9 0 17 -6 17 -14z m-570 1 c0 -2 -13 -27 -28 -56 -26 -47
-30 -50 -43 -35 -12 16 -12 17 3 12 12 -5 20 2 29 25 8 18 12 38 11 45 -2 6 4
12 13 12 8 0 15 -2 15 -3z m200 -10 c0 -8 -7 -14 -15 -14 -11 0 -12 4 -4 14 6
7 13 13 15 13 2 0 4 -6 4 -13z m168 3 c-1 -3 7 -21 20 -41 24 -40 18 -49 -31
-49 -18 0 -19 -2 -7 -10 13 -8 13 -10 -1 -10 -16 0 -34 38 -24 49 3 2 5 -1 5
-7 0 -7 14 -12 30 -12 17 0 30 2 30 5 0 12 -24 55 -32 55 -4 0 -8 7 -8 16 0 9
5 14 11 12 6 -2 9 -6 7 -8z m-471 -22 c-3 -8 -6 -5 -6 6 -1 11 2 17 5 13 3 -3
4 -12 1 -19z m633 12 c0 -5 -4 -10 -10 -10 -5 0 -10 5 -10 10 0 6 5 10 10 10
6 0 10 -4 10 -10z m-450 -25 c0 -8 -4 -15 -10 -15 -5 0 -7 7 -4 15 4 8 8 15
10 15 2 0 4 -7 4 -15z m208 -20 c6 -14 8 -25 3 -25 -4 0 -13 11 -19 25 -6 14
-8 25 -3 25 4 0 13 -11 19 -25z m239 19 c-3 -3 -12 -4 -19 -1 -8 3 -5 6 6 6
11 1 17 -2 13 -5z m40 0 c-3 -3 -12 -4 -19 -1 -8 3 -5 6 6 6 11 1 17 -2 13 -5z
m-800 -10 c-3 -3 -12 -4 -19 -1 -8 3 -5 6 6 6 11 1 17 -2 13 -5z m272 -30 c6
4 11 3 11 -1 0 -11 -40 -36 -47 -29 -3 2 -2 14 2 27 5 15 9 18 15 9 4 -7 13
-9 19 -6z m406 6 c-3 -5 -12 -10 -18 -10 -7 0 -6 4 3 10 19 12 23 12 15 0z
m-472 -25 c-3 -9 -8 -14 -10 -11 -3 3 -2 9 2 15 9 16 15 13 8 -4z m-113 -100
c0 -8 -7 -15 -15 -15 -8 0 -15 7 -15 15 0 8 7 15 15 15 8 0 15 -7 15 -15z
m656 -13 c-8 -8 -19 -11 -25 -8 -20 13 -12 26 14 24 21 -2 23 -4 11 -16z
m-702 -8 c9 -22 -3 -32 -14 -14 -12 19 -12 30 -1 30 5 0 12 -7 15 -16z m611 5
c11 -17 -1 -21 -15 -4 -8 9 -8 15 -2 15 6 0 14 -5 17 -11z m-485 -40 c0 -5 -4
-9 -10 -9 -5 0 -10 7 -10 16 0 8 5 12 10 9 6 -3 10 -10 10 -16z m480 -4 c-7
-9 -15 -13 -17 -11 -7 7 7 26 19 26 6 0 6 -6 -2 -15z m-426 -95 c-6 -6 -15 -6
-24 0 -13 9 -13 11 0 20 18 11 39 -5 24 -20z m381 11 c7 -12 -12 -24 -25 -16
-11 7 -4 25 10 25 5 0 11 -4 15 -9z m-411 -32 c-2 -4 2 -9 8 -12 8 -2 9 -8 4
-13 -5 -5 -11 -4 -13 4 -3 6 -8 10 -12 8 -4 -3 -8 1 -8 8 0 7 6 13 13 13 7 0
11 -4 8 -8z m37 -36 c-12 -20 -14 -14 -5 12 4 9 9 14 11 11 3 -2 0 -13 -6 -23z
m59 3 c0 -2 -8 -10 -17 -17 -16 -13 -17 -12 -4 4 13 16 21 21 21 13z m27 -28
c-3 -8 -6 -5 -6 6 -1 11 2 17 5 13 3 -3 4 -12 1 -19z m180 16 c-3 -3 -12 -4
-19 -1 -8 3 -5 6 6 6 11 1 17 -2 13 -5z m-77 -26 c0 -4 -9 -8 -20 -8 -11 0
-20 4 -20 9 0 6 9 9 20 8 11 -1 20 -5 20 -9z"/>
<path d="M1133 1603 c9 -9 19 -14 23 -11 10 10 -6 28 -24 28 -15 0 -15 -1 1
-17z"/>
<path d="M895 1144 c-11 -11 -13 -20 -7 -26 13 -13 35 0 28 17 -3 8 0 16 7 19
9 3 9 5 0 5 -6 1 -19 -6 -28 -15z"/>
<path d="M941 1124 c0 -11 3 -14 6 -6 3 7 2 16 -1 19 -3 4 -6 -2 -5 -13z"/>
<path d="M960 1126 c0 -9 5 -16 10 -16 6 0 10 4 10 9 0 6 -4 13 -10 16 -5 3
-10 -1 -10 -9z"/>
<path d="M1050 1136 c0 -2 8 -10 18 -17 15 -13 16 -12 3 4 -13 16 -21 21 -21
13z"/>
<path d="M895 1080 c-3 -5 -1 -10 4 -10 6 0 11 5 11 10 0 6 -2 10 -4 10 -3 0
-8 -4 -11 -10z"/>
<path d="M1034 1059 c-3 -6 -1 -16 6 -22 7 -7 10 -7 7 -2 -9 17 30 16 44 -1 8
-10 8 -14 0 -14 -19 0 -26 5 -23 15 1 6 -5 1 -13 -9 -8 -11 -15 -16 -15 -11 0
4 -9 0 -20 -10 -11 -10 -20 -23 -20 -29 0 -6 5 -5 12 2 13 13 74 17 81 5 2 -5
3 -3 1 4 -1 6 7 13 18 16 20 6 20 34 0 30 -5 -1 -18 7 -27 17 -20 22 -40 26
-51 9z"/>
<path d="M892 1033 c5 -7 14 -10 19 -7 16 10 9 23 -10 21 -15 -1 -17 -4 -9
-14z"/>
<path d="M950 1037 c0 -7 9 -13 20 -14 11 -1 20 4 20 10 0 7 -9 13 -20 14 -11
1 -20 -4 -20 -10z"/>
<path d="M765 1010 c4 -6 11 -8 16 -5 14 9 11 15 -7 15 -8 0 -12 -5 -9 -10z"/>
<path d="M940 955 c-6 -16 -14 -23 -25 -19 -8 3 -15 1 -15 -4 0 -23 19 -21 39
4 11 14 25 23 31 19 5 -3 10 1 10 9 0 25 -30 18 -40 -9z"/>
<path d="M980 936 c0 -2 7 -9 15 -16 9 -7 15 -8 15 -2 0 5 -7 12 -15 16 -8 3
-15 4 -15 2z"/>
<path d="M1550 1678 c0 -4 7 -8 15 -8 8 0 15 4 15 8 0 5 -7 9 -15 9 -8 0 -15
-4 -15 -9z"/>
<path d="M637 1665 c-21 -15 -97 -108 -97 -118 0 -4 11 5 25 20 19 21 27 25
33 15 7 -10 19 -2 50 28 39 39 46 67 18 67 -7 0 -20 -5 -29 -12z"/>
<path d="M1305 1667 c4 -9 2 -23 -4 -31 -9 -11 -4 -25 26 -64 l37 -51 17 27
c15 25 15 29 -2 52 -26 38 -82 88 -74 67z"/>
<path d="M1350 1665 c0 -8 4 -15 9 -15 18 0 107 -145 126 -205 30 -90 28 -267
-3 -357 -26 -75 -106 -195 -152 -228 -35 -25 -37 -35 -9 -50 16 -9 25 -8 40 6
23 21 24 31 4 36 -11 2 -6 14 19 46 19 24 37 43 40 43 3 -1 6 1 6 4 0 3 9 14
20 25 12 12 17 26 13 37 -6 15 -2 14 30 -5 l38 -22 9 26 c6 14 10 44 9 67 l-1
42 -15 -43 c-9 -27 -20 -41 -28 -38 -7 2 -18 -1 -25 -7 -10 -10 -11 -8 -5 8 4
11 16 47 25 80 11 38 20 54 24 45 5 -11 18 -15 44 -13 20 1 29 0 20 -3 -15 -5
-18 -19 -19 -87 -1 -45 -1 -86 0 -90 1 -5 -3 -6 -8 -3 -10 6 -20 -5 -66 -77
-24 -36 -36 -69 -14 -37 7 11 8 5 3 -22 -5 -30 -3 -38 9 -38 9 0 18 13 22 30
6 26 11 30 41 30 19 0 34 5 34 10 0 6 -13 10 -30 10 -27 0 -30 3 -30 30 0 27
3 30 30 30 19 0 30 5 28 13 -1 6 4 23 11 36 7 13 15 58 17 100 2 42 6 94 9
116 5 39 5 39 -6 10 -14 -36 -26 -45 -61 -45 -28 0 -29 2 -30 70 -1 3 2 19 6
35 5 22 4 26 -4 15 -7 -11 -10 -2 -10 36 0 28 -6 72 -14 98 -8 25 -15 50 -16
54 -1 4 -11 24 -21 44 -18 36 -18 37 0 43 11 3 25 13 33 22 10 14 7 13 -20 -3
-33 -19 -34 -19 -48 0 -8 11 -10 22 -5 25 12 7 -15 40 -51 64 -24 15 -28 15
-28 2z"/>
<path d="M1461 1624 c0 -11 3 -14 6 -6 3 7 2 16 -1 19 -3 4 -6 -2 -5 -13z"/>
<path d="M1478 1603 c-10 -2 -18 -9 -18 -14 0 -6 8 -5 20 1 11 6 20 13 20 15
0 3 -1 4 -2 4 -2 -1 -11 -3 -20 -6z"/>
<path d="M1410 1540 c6 -11 13 -20 16 -20 2 0 0 9 -6 20 -6 11 -13 20 -16 20
-2 0 0 -9 6 -20z"/>
<path d="M1430 1505 c0 -5 5 -17 10 -25 5 -8 10 -10 10 -5 0 6 -5 17 -10 25
-5 8 -10 11 -10 5z"/>
<path d="M1568 1503 c6 -2 18 -2 25 0 6 3 1 5 -13 5 -14 0 -19 -2 -12 -5z"/>
<path d="M1570 1474 c0 -9 -7 -22 -15 -28 -14 -10 -14 -20 -3 -79 11 -59 15
-67 35 -67 22 0 23 3 23 95 0 88 -1 95 -20 95 -12 0 -20 -7 -20 -16z"/>
<path d="M1524 1456 c-10 -8 -17 -17 -14 -19 3 -3 16 3 30 13 29 22 14 27 -16
6z"/>
<path d="M1472 1375 c0 -16 2 -22 5 -12 2 9 2 23 0 30 -3 6 -5 -1 -5 -18z"/>
<path d="M1483 1280 c0 -36 2 -50 4 -32 2 17 2 47 0 65 -2 17 -4 3 -4 -33z"/>
<path d="M1553 1203 c9 -2 23 -2 30 0 6 3 -1 5 -18 5 -16 0 -22 -2 -12 -5z"/>
<path d="M1465 1163 c-9 -52 -43 -129 -78 -182 -27 -39 -31 -42 -40 -25 -5 11
-11 21 -13 22 -1 2 -22 -17 -46 -41 -37 -39 -42 -49 -34 -67 12 -26 -8 -45
-89 -85 -31 -15 -39 -23 -22 -19 29 7 35 -4 15 -24 -10 -10 -6 -10 20 -1 24 8
32 17 32 34 0 17 13 33 44 54 64 44 139 132 174 205 32 65 59 153 49 162 -2 3
-8 -12 -12 -33z"/>
<path d="M490 1025 c19 -49 49 -101 80 -135 21 -23 29 -28 25 -15 -5 17 -3 17
22 -5 15 -14 25 -21 21 -16 -4 5 -3 15 3 22 8 10 2 23 -22 54 -29 36 -34 39
-49 25 -14 -13 -19 -9 -49 40 -36 60 -46 69 -31 30z"/>
<path d="M1601 904 c0 -11 3 -14 6 -6 3 7 2 16 -1 19 -3 4 -6 -2 -5 -13z"/>
<path d="M1410 902 c0 -4 15 -13 33 -19 l32 -12 -24 19 c-24 21 -41 26 -41 12z"/>
<path d="M1462 810 c0 -14 2 -19 5 -12 2 6 2 18 0 25 -3 6 -5 1 -5 -13z"/>
<path d="M680 797 c0 -16 9 -28 26 -36 15 -6 29 -9 32 -6 3 3 0 5 -7 5 -7 0
-11 6 -8 14 3 9 -4 21 -19 30 -23 16 -24 16 -24 -7z"/>
<path d="M1292 755 c0 -16 2 -22 5 -12 2 9 2 23 0 30 -3 6 -5 -1 -5 -18z"/>
<path d="M1470 773 c0 -29 21 -35 45 -12 7 7 4 8 -9 3 -11 -4 -21 -2 -27 7 -6
10 -9 10 -9 2z"/>
<path d="M1088 753 c7 -3 16 -2 19 1 4 3 -2 6 -13 5 -11 0 -14 -3 -6 -6z"/>
<path d="M968 733 c7 -3 16 -2 19 1 4 3 -2 6 -13 5 -11 0 -14 -3 -6 -6z"/>
<path d="M1455 730 c3 -5 2 -34 -3 -64 -6 -39 -6 -53 2 -49 6 3 2 -3 -9 -14
-14 -14 -22 -17 -27 -9 -6 8 -11 6 -18 -4 -14 -22 -12 -40 4 -40 9 0 12 -7 9
-20 -3 -11 -12 -20 -20 -20 -12 0 -12 -2 1 -15 8 -8 22 -12 30 -9 11 4 16 1
16 -10 0 -11 -9 -16 -29 -16 -25 0 -30 -5 -35 -35 -4 -19 -13 -35 -20 -35 -8
0 -13 -13 -13 -35 0 -19 4 -35 9 -35 5 0 7 -4 4 -8 -3 -5 6 -21 18 -37 l23
-29 29 19 29 20 -42 5 c-24 4 -46 10 -50 15 -5 4 -1 6 7 3 10 -3 22 8 35 31
19 32 25 36 62 36 51 0 47 12 -7 17 -35 3 -41 1 -51 -24 -7 -17 -19 -28 -31
-28 -10 0 -17 3 -15 8 3 4 10 26 16 50 9 32 17 42 32 42 15 0 19 -5 15 -16 -3
-8 -2 -12 4 -9 6 3 13 24 16 46 6 39 7 39 53 40 l46 2 -37 6 c-37 6 -41 26 -5
28 9 0 21 1 27 2 11 1 25 27 34 64 6 26 5 27 -34 27 -33 0 -40 -3 -40 -19 0
-14 5 -18 19 -14 10 3 22 0 25 -6 5 -7 -4 -10 -26 -8 -21 2 -33 8 -32 17 0 8
4 40 7 71 6 51 5 57 -13 62 -11 3 -18 1 -15 -3z"/>
<path d="M631 714 c0 -11 3 -14 6 -6 3 7 2 16 -1 19 -3 4 -6 -2 -5 -13z"/>
<path d="M1316 700 c-13 -52 -20 -58 -27 -25 -7 30 -7 30 -8 3 -1 -15 -10 -33
-23 -43 -21 -14 -23 -14 -30 2 -5 13 -7 8 -7 -14 -1 -31 -2 -32 -33 -26 -18 3
-34 7 -36 8 -2 2 -7 25 -12 52 -4 26 -8 36 -9 22 -1 -33 -9 -41 -31 -29 -15 8
-16 5 -10 -30 8 -44 5 -51 -18 -43 -13 5 -14 0 -9 -30 l6 -36 -76 4 c-82 4
-93 11 -93 59 l0 28 76 -4 c71 -3 75 -2 70 17 -3 11 -6 23 -6 27 0 3 -38 8
-86 10 -81 3 -85 2 -79 -17 17 -62 17 -65 2 -65 -8 0 -18 6 -21 13 -3 6 -3 -7
0 -30 5 -40 4 -41 -18 -36 -13 4 -27 12 -33 19 -5 7 -19 14 -30 17 -18 4 -17
5 3 6 19 1 22 5 17 21 -5 16 -2 20 19 20 14 0 26 1 26 3 -7 34 -29 96 -29 80
-1 -17 -7 -23 -22 -23 -18 0 -21 -5 -17 -27 3 -25 1 -28 -27 -28 -35 0 -45 10
-45 45 0 20 -2 22 -10 10 -9 -13 -13 -12 -30 9 -24 28 -25 20 -4 -35 11 -29
24 -44 40 -48 17 -5 26 -16 31 -36 5 -27 9 -30 44 -30 35 0 39 -3 48 -37 15
-53 15 -53 -24 -53 -34 0 -46 -12 -25 -25 6 -3 10 -15 10 -26 0 -16 7 -19 44
-19 40 0 45 -3 55 -31 16 -47 15 -49 -29 -46 -32 3 -37 1 -28 -10 6 -7 28 -13
50 -13 35 0 39 2 33 20 -5 16 -2 20 15 20 22 0 22 0 3 48 -3 8 4 12 20 12 18
0 29 -9 41 -34 21 -44 20 -46 -5 -46 -15 0 -19 -5 -15 -15 5 -14 -5 -19 -31
-16 -8 1 -10 -5 -7 -14 5 -12 -2 -15 -31 -15 -33 0 -36 -2 -24 -16 8 -10 26
-14 54 -13 22 2 45 0 50 -2 6 -3 72 -6 147 -7 76 0 142 -4 148 -7 6 -4 33 -4
61 0 41 6 48 9 38 21 -16 19 -83 19 -76 0 4 -10 0 -12 -14 -9 -19 5 -27 33 -9
33 6 0 10 7 10 15 0 11 11 15 40 15 22 0 40 4 40 10 0 5 -7 7 -15 4 -8 -4 -15
-1 -15 5 0 6 -16 11 -36 11 -30 0 -34 -3 -29 -19 5 -15 1 -18 -20 -13 -25 4
-35 -11 -15 -23 27 -17 2 -25 -75 -25 -50 0 -85 4 -85 10 0 6 27 10 60 10 49
0 58 3 54 15 -4 9 0 15 10 15 9 0 16 5 16 10 0 6 -11 10 -25 10 -19 0 -23 -4
-18 -17 6 -14 -2 -15 -71 -9 -74 7 -77 6 -67 -12 9 -17 6 -20 -21 -26 -32 -6
-50 0 -33 12 6 4 10 14 10 22 0 8 6 14 13 12 7 -1 12 8 12 23 0 24 2 25 66 25
l66 0 -7 30 c-6 26 -4 30 15 30 15 0 25 -11 36 -35 11 -27 19 -34 38 -33 21 2
23 5 15 26 -14 38 -11 42 31 42 34 0 40 3 40 21 0 11 -4 18 -9 15 -5 -3 -11 1
-15 9 -3 10 -19 15 -45 15 -39 0 -40 -1 -31 -26 14 -36 13 -44 -10 -44 -12 0
-26 12 -35 30 -11 21 -23 30 -41 30 -21 0 -23 -3 -14 -19 19 -37 12 -40 -62
-37 -72 4 -98 18 -98 53 0 7 -11 13 -26 13 -23 0 -25 -3 -19 -29 4 -20 2 -30
-9 -34 -19 -8 -44 22 -52 61 -6 28 -4 32 15 32 17 0 20 4 15 30 -6 27 -4 30
19 30 20 0 27 -6 32 -30 l7 -30 77 0 78 0 -5 32 c-4 26 -2 30 12 25 10 -4 21
-7 26 -7 5 0 11 -13 15 -29 5 -23 10 -27 30 -23 20 3 24 9 19 28 -6 22 -3 24
36 24 41 0 42 1 38 30 -4 26 -2 29 15 24 13 -4 17 -2 13 5 -4 7 -1 9 8 5 20
-8 38 56 34 121 l-3 50 -9 -35z m-156 -119 c0 -5 3 -23 6 -40 6 -26 3 -31 -13
-31 -27 0 -43 19 -43 52 0 23 4 28 25 28 14 0 25 -4 25 -9z"/>
<path d="M1502 705 c0 -16 2 -22 5 -12 2 9 2 23 0 30 -3 6 -5 -1 -5 -18z"/>
<path d="M1490 658 c0 -15 8 -18 43 -16 40 1 40 1 7 5 -19 3 -38 10 -42 16 -5
8 -8 6 -8 -5z"/>
<path d="M1298 463 c6 -2 18 -2 25 0 6 3 1 5 -13 5 -14 0 -19 -2 -12 -5z"/>
</g>
</svg>
