<svg width="129" height="129" viewBox="0 0 129 129" fill="none" xmlns="http://www.w3.org/2000/svg">
<path fill-rule="evenodd" clip-rule="evenodd" d="M35.625 28.5C35.625 20.9413 38.6277 13.6922 43.9725 8.34746C49.3172 3.00267 56.5663 0 64.125 0C71.6837 0 78.9328 3.00267 84.2775 8.34746C89.6223 13.6922 92.625 20.9413 92.625 28.5C92.625 36.0587 89.6223 43.3078 84.2775 48.6525C78.9328 53.9973 71.6837 57 64.125 57C56.5663 57 49.3172 53.9973 43.9725 48.6525C38.6277 43.3078 35.625 36.0587 35.625 28.5ZM35.625 71.25C26.1767 71.25 17.1153 75.0033 10.4343 81.6843C3.75334 88.3653 0 97.4267 0 106.875C0 112.544 2.252 117.981 6.26059 121.989C10.2692 125.998 15.706 128.25 21.375 128.25H106.875C112.544 128.25 117.981 125.998 121.989 121.989C125.998 117.981 128.25 112.544 128.25 106.875C128.25 97.4267 124.497 88.3653 117.816 81.6843C111.135 75.0033 102.073 71.25 92.625 71.25H35.625Z" fill="url(#paint0_linear_121_6)"/>
<defs>
<linearGradient id="paint0_linear_121_6" x1="64.125" y1="-3.72529e-09" x2="64" y2="277.5" gradientUnits="userSpaceOnUse">
<stop/>
<stop offset="0.555665" stop-color="#ABABAB"/>
</linearGradient>
</defs>
</svg>
